<?xml version="1.0" encoding="UTF-8" standalone="no"?>
<svg
   xmlns:dc="http://purl.org/dc/elements/1.1/"
   xmlns:cc="http://creativecommons.org/ns#"
   xmlns:rdf="http://www.w3.org/1999/02/22-rdf-syntax-ns#"
   xmlns:svg="http://www.w3.org/2000/svg"
   xmlns="http://www.w3.org/2000/svg"
   xmlns:sodipodi="http://sodipodi.sourceforge.net/DTD/sodipodi-0.dtd"
   xmlns:inkscape="http://www.inkscape.org/namespaces/inkscape"
   id="Livello_1"
   data-name="Livello 1"
   viewBox="0 0 1040 1039"
   version="1.1"
   sodipodi:docname="lactancyL3svg.svg"
   inkscape:version="0.92.3 (2405546, 2018-03-11)">
  <metadata
     id="metadata19">
    <rdf:RDF>
      <cc:Work
         rdf:about="">
        <dc:format>image/svg+xml</dc:format>
        <dc:type
           rdf:resource="http://purl.org/dc/dcmitype/StillImage" />
        <dc:title>lactancy</dc:title>
      </cc:Work>
    </rdf:RDF>
  </metadata>
  <sodipodi:namedview
     pagecolor="#ffffff"
     bordercolor="#666666"
     borderopacity="1"
     objecttolerance="10"
     gridtolerance="10"
     guidetolerance="10"
     inkscape:pageopacity="0"
     inkscape:pageshadow="2"
     inkscape:window-width="1600"
     inkscape:window-height="872"
     id="namedview17"
     showgrid="false"
     inkscape:zoom="0.22714148"
     inkscape:cx="520"
     inkscape:cy="519.5"
     inkscape:window-x="0"
     inkscape:window-y="0"
     inkscape:window-maximized="1"
     inkscape:current-layer="Livello_1" />
  <defs
     id="defs4">
    <style
       id="style2">
      .cls-1 {
        fill: #fff;
      }
    </style>
  </defs>
  <title
     id="title6">lactancy</title>
  <circle
     cx="520"
     cy="520"
     r="520"
     id="circle8"
     style="fill:#ffb74d;fill-opacity:1" />
  <g
     id="g14">
    <path
       class="cls-1"
       d="M602.91,684.63c-11.6-.83-22.3-.79-32.7-2.51-22.65-3.76-40.38-16.31-54-34.27-8.78-11.61-16.06-24.34-24-36.6-3.31-5.14-6.14-10.65-9.84-15.5-6.46-8.49-15.62-11.33-25.93-10.35s-16.93,9.07-17.7,21.26a81.23,81.23,0,0,0,9,42.88c2.46,4.81,5.13,9.54,7.22,14.51,2.71,6.41,1.51,10.86-4.54,14.29-5,2.8-10.38,5.35-15.91,6.4-14.13,2.69-28.44,4.45-42.66,6.67-3.52.55-7,1.44-10.46,2.17l-.81,1.52c2.76,2.55,5.1,6.15,8.36,7.46,13.64,5.51,27.36,11,41.43,15.25,16.86,5.1,34.48,5.2,52,5.66,13,.34,26,.86,38.83,2.3,9.3,1.05,17.4,5.76,24.34,12.14,14,12.89,15.72,32.64,4.13,49.63-8.53,12.52-21.06,19.48-35,24.14-26.63,8.88-53.62,7.8-80.65,2.15-33.16-6.94-64.46-18.75-92.06-38.6-33.43-24.05-49.37-57.41-49-98.51.22-28,8.55-54.12,20.08-79.07,13.84-29.92,28.67-59.41,44-88.61,10.64-20.29,24.41-38.37,44.1-51.11a84.88,84.88,0,0,1,46.49-14c51.46-.21,102.92.16,154.38-.2,31.74-.22,56.35,12.82,75.16,37.81,18.54,24.62,32.33,52.1,46.73,79.13,7.5,14.07,14.4,28.85,18.75,44.12,9.16,32.12,3.89,62.77-15.71,90-18,25-39,47-66.65,61.54-19.15,10.07-39.63,14.72-61.17,9.71-28.45-6.62-38.23-35.81-19.71-58.42,4.32-5.28,9.65-9.72,14.55-14.51C596.78,690.42,599.65,687.73,602.91,684.63Zm-75.55-82.36a67.08,67.08,0,1,0,66.82-67.13A66.77,66.77,0,0,0,527.36,602.27Z"
       id="path10" />
    <path
       class="cls-1"
       d="M618.59,319.44c0,54.36-44.59,98.93-98.9,98.82-54-.11-98.46-44.67-98.54-98.74-.08-54.28,44.56-98.8,99-98.73C574.34,220.85,618.56,265.18,618.59,319.44Z"
       id="path12" />
  </g>
</svg>
