<?xml version="1.0" encoding="UTF-8" standalone="no"?>
<svg
   xmlns:dc="http://purl.org/dc/elements/1.1/"
   xmlns:cc="http://creativecommons.org/ns#"
   xmlns:rdf="http://www.w3.org/1999/02/22-rdf-syntax-ns#"
   xmlns:svg="http://www.w3.org/2000/svg"
   xmlns="http://www.w3.org/2000/svg"
   xmlns:sodipodi="http://sodipodi.sourceforge.net/DTD/sodipodi-0.dtd"
   xmlns:inkscape="http://www.inkscape.org/namespaces/inkscape"
   id="Livello_1"
   data-name="Livello 1"
   viewBox="0 0 1040 1039"
   version="1.1"
   sodipodi:docname="lactancy.svg"
   inkscape:version="0.92.3 (2405546, 2018-03-11)">
  <metadata
     id="metadata19">
    <rdf:RDF>
      <cc:Work
         rdf:about="">
        <dc:format>image/svg+xml</dc:format>
        <dc:type
           rdf:resource="http://purl.org/dc/dcmitype/StillImage" />
        <dc:title>lactancy</dc:title>
      </cc:Work>
    </rdf:RDF>
  </metadata>
  <sodipodi:namedview
     pagecolor="#ffffff"
     bordercolor="#666666"
     borderopacity="1"
     objecttolerance="10"
     gridtolerance="10"
     guidetolerance="10"
     inkscape:pageopacity="0"
     inkscape:pageshadow="2"
     inkscape:window-width="1600"
     inkscape:window-height="872"
     id="namedview17"
     showgrid="false"
     inkscape:zoom="0.22714148"
     inkscape:cx="-386.92373"
     inkscape:cy="519.49999"
     inkscape:window-x="0"
     inkscape:window-y="0"
     inkscape:window-maximized="1"
     inkscape:current-layer="Livello_1" />
  <defs
     id="defs4">
    <style
       id="style2">
      .cls-1 {
        fill: #fff;
      }
    </style>
  </defs>
  <title
     id="title6">lactancy</title>
  <circle
     cx="520"
     cy="520"
     r="520"
     id="circle8"
     style="fill:#b388ff;fill-opacity:0.66274512" />
  <g
     id="g14">
    <path
       class="cls-1"
       d="M602.91,684.63c-11.6-.83-22.3-.79-32.7-2.51-22.65-3.76-40.38-16.31-54-34.27-8.78-11.61-16.06-24.34-24-36.6-3.31-5.14-6.14-10.65-9.84-15.5-6.46-8.49-15.62-11.33-25.93-10.35s-16.93,9.07-17.7,21.26a81.23,81.23,0,0,0,9,42.88c2.46,4.81,5.13,9.54,7.22,14.51,2.71,6.41,1.51,10.86-4.54,14.29-5,2.8-10.38,5.35-15.91,6.4-14.13,2.69-28.44,4.45-42.66,6.67-3.52.55-7,1.44-10.46,2.17l-.81,1.52c2.76,2.55,5.1,6.15,8.36,7.46,13.64,5.51,27.36,11,41.43,15.25,16.86,5.1,34.48,5.2,52,5.66,13,.34,26,.86,38.83,2.3,9.3,1.05,17.4,5.76,24.34,12.14,14,12.89,15.72,32.64,4.13,49.63-8.53,12.52-21.06,19.48-35,24.14-26.63,8.88-53.62,7.8-80.65,2.15-33.16-6.94-64.46-18.75-92.06-38.6-33.43-24.05-49.37-57.41-49-98.51.22-28,8.55-54.12,20.08-79.07,13.84-29.92,28.67-59.41,44-88.61,10.64-20.29,24.41-38.37,44.1-51.11a84.88,84.88,0,0,1,46.49-14c51.46-.21,102.92.16,154.38-.2,31.74-.22,56.35,12.82,75.16,37.81,18.54,24.62,32.33,52.1,46.73,79.13,7.5,14.07,14.4,28.85,18.75,44.12,9.16,32.12,3.89,62.77-15.71,90-18,25-39,47-66.65,61.54-19.15,10.07-39.63,14.72-61.17,9.71-28.45-6.62-38.23-35.81-19.71-58.42,4.32-5.28,9.65-9.72,14.55-14.51C596.78,690.42,599.65,687.73,602.91,684.63Zm-75.55-82.36a67.08,67.08,0,1,0,66.82-67.13A66.77,66.77,0,0,0,527.36,602.27Z"
       id="path10" />
    <path
       class="cls-1"
       d="M618.59,319.44c0,54.36-44.59,98.93-98.9,98.82-54-.11-98.46-44.67-98.54-98.74-.08-54.28,44.56-98.8,99-98.73C574.34,220.85,618.56,265.18,618.59,319.44Z"
       id="path12" />
  </g>
  <path
     style="fill:#b388ff;fill-opacity:0.66274512;stroke-width:1"
     d="M 460.13312,1035.1959 C 260.71821,1010.4372 92.198763,873.57826 29.054782,685.10608 -51.776771,443.84007 54.180427,179.50708 279.20865,61.043566 320.59377,39.256848 366.78497,22.536705 416.81486,11.233315 463.58494,0.66641847 573.45527,0.7791487 623.01949,11.444887 c 211.7117,45.55829 370.58959,209.248053 407.27331,419.608283 8.4798,48.62676 8.3874,130.55777 -0.2029,179.8176 -36.21451,207.66915 -196.82903,372.8639 -404.525,416.06073 -48.40384,10.0671 -121.50052,13.7187 -165.43195,8.2644 z m 51.69333,-222.11874 c 26.57582,-7.89217 45.1549,-27.14053 45.1549,-46.7815 0,-31.59256 -16.841,-41.33935 -77.04449,-44.58961 -42.41568,-2.28999 -94.65466,-16.10538 -94.65466,-25.0329 0,-1.96842 11.19894,-4.97813 24.88654,-6.6883 43.34547,-5.41566 53.25189,-14.91846 40.46308,-38.81458 -14.14246,-26.42542 -13.57484,-58.02335 1.12617,-62.68925 14.94769,-4.74422 25.82021,2.51161 41.91647,27.97318 29.50725,46.67545 54.96548,66.82038 84.44442,66.82038 18.68875,0 19.70679,4.05025 5.17752,20.59818 -22.32855,25.4308 -14.58791,54.39424 16.77092,62.75234 32.46166,8.65205 73.48015,-9.84166 108.94161,-49.11771 27.94184,-30.9475 37.06562,-52.00534 37.18506,-85.82356 0.0876,-24.87485 -2.35038,-32.19844 -26.67976,-80.13693 -14.72707,-29.01808 -34.76538,-61.83599 -44.52955,-72.92868 -29.85734,-33.91974 -33.57718,-34.94457 -133.41223,-36.75463 -106.14186,-1.92444 -125.39728,1.35075 -153.52987,26.11403 -15.32941,13.49349 -27.03633,31.54554 -50.52378,77.90775 -35.47151,70.01768 -44.70649,97.91817 -44.64698,134.88637 0.0801,49.76321 26.9524,87.52663 81.17745,114.07806 47.79038,23.40065 97.99233,30.04215 137.77718,18.22736 z M 556.02212,412.2951 c 72.77592,-30.35391 83.7571,-130.36059 19.28939,-175.6702 -25.78133,-18.11978 -69.36421,-21.20473 -97.41312,-6.89523 -64.8857,33.10221 -77.28143,115.93565 -24.30943,162.44568 9.27215,8.14107 22.95587,17.45696 30.40828,20.70199 18.36018,7.99466 52.11531,7.72178 72.02488,-0.58224 z"
     id="path1595"
     inkscape:connector-curvature="0" />
  <path
     style="fill:#b388ff;fill-opacity:0.6627451;stroke-width:1"
     d="m 581.19533,665.86899 c -33.69516,-7.85289 -50.58638,-29.05229 -50.61278,-63.52179 -0.0301,-39.36455 25.9125,-64.38929 66.68703,-64.32751 35.73706,0.0542 60.90345,26.41147 60.92478,63.80786 0.025,43.81455 -35.83038,73.63608 -76.99903,64.04144 z"
     id="path1597"
     inkscape:connector-curvature="0" />
  <path
     style="fill:#9575cd;fill-opacity:0.66274512;stroke-width:1"
     d="M 471.06468,1035.44 C 391.87947,1028.7478 304.66645,997.49552 231.09566,949.44851 186.967,920.62933 119.93261,852.83819 88.314364,805.05538 -50.79024,594.83459 -18.875054,319.34483 164.8205,144.6595 273.14203,41.651107 415.65987,-8.0826476 564.97324,5.0201409 749.93963,21.251609 904.23281,127.86041 986.05005,295.96298 c 70.76535,145.39516 68.21025,315.35425 -6.94787,462.15482 -47.88373,93.5277 -128.67104,174.16004 -221.95369,221.52801 -74.55494,37.85819 -125.4254,50.92889 -224.38112,57.65279 -12.10699,0.8227 -39.87321,-0.013 -61.70269,-1.8586 z m 35.86756,-220.6945 c 26.80743,-6.7502 50.04911,-28.82261 50.04911,-47.53125 0,-29.21241 -20.52787,-44.28707 -60.39355,-44.35003 -43.39581,-0.0687 -114.72626,-17.28552 -109.12991,-26.34063 1.16522,-1.88534 11.55337,-4.73515 23.08479,-6.33292 44.67034,-6.18936 52.6072,-15.00387 38.34454,-42.58474 -4.10158,-7.93157 -6.30267,-21.31077 -5.50317,-33.45012 2.46172,-37.37745 25.51696,-36.36148 49.83343,2.19608 28.95614,45.91446 55.83855,66.92269 85.63517,66.92269 16.22962,0 16.80724,5.62544 2.34268,22.8156 -19.55468,23.2394 -11.23255,52.30701 17.22522,60.16458 32.88976,9.08134 75.22509,-9.58011 110.58838,-48.74737 27.94184,-30.9475 37.06562,-52.00534 37.18506,-85.82356 0.0876,-24.8472 -2.34219,-32.16942 -26.2985,-79.24576 -14.51734,-28.52795 -34.52711,-61.33112 -44.46611,-72.89589 -30.95393,-36.01724 -31.72125,-36.20616 -147.06455,-36.20616 -95.7821,0 -102.23344,0.5217 -119.28548,9.64637 -26.28612,14.06581 -41.29341,33.49186 -71.17267,92.12879 -47.42918,93.07798 -55.99457,138.74885 -34.62755,184.63492 27.94425,60.01079 131.40369,103.19203 203.65311,84.9994 z m 49.08988,-402.4504 c 55.05314,-22.96197 77.91052,-86.12116 50.29689,-138.97969 -16.82176,-32.2006 -39.86264,-47.88104 -75.0441,-51.07118 -96.95187,-8.79129 -149.73631,106.67006 -77.68595,169.93112 9.27215,8.14107 22.95587,17.45696 30.40828,20.70199 18.36018,7.99466 52.11531,7.72178 72.02488,-0.58224 z"
     id="path1599"
     inkscape:connector-curvature="0" />
  <path
     style="fill:#9575cd;fill-opacity:0.6627451;stroke-width:1"
     d="m 561.65537,657.6198 c -29.15175,-15.63426 -40.07654,-58.60815 -22.30797,-87.75092 25.60984,-42.0035 83.99719,-42.0035 110.37266,0 11.29561,17.98848 9.89665,53.38552 -2.78298,70.41622 -19.12197,25.68378 -55.80921,33.14097 -85.28171,17.3347 z"
     id="path1601"
     inkscape:connector-curvature="0" />
</svg>
