<?xml version="1.0" encoding="UTF-8" standalone="no"?>
<svg
   xmlns:dc="http://purl.org/dc/elements/1.1/"
   xmlns:cc="http://creativecommons.org/ns#"
   xmlns:rdf="http://www.w3.org/1999/02/22-rdf-syntax-ns#"
   xmlns:svg="http://www.w3.org/2000/svg"
   xmlns="http://www.w3.org/2000/svg"
   xmlns:sodipodi="http://sodipodi.sourceforge.net/DTD/sodipodi-0.dtd"
   xmlns:inkscape="http://www.inkscape.org/namespaces/inkscape"
   id="Livello_1"
   data-name="Livello 1"
   viewBox="0 0 1040 1039"
   version="1.1"
   sodipodi:docname="lactancy2.svg"
   inkscape:version="0.92.3 (2405546, 2018-03-11)">
  <metadata
     id="metadata19">
    <rdf:RDF>
      <cc:Work
         rdf:about="">
        <dc:format>image/svg+xml</dc:format>
        <dc:type
           rdf:resource="http://purl.org/dc/dcmitype/StillImage" />
      </cc:Work>
    </rdf:RDF>
  </metadata>
  <sodipodi:namedview
     pagecolor="#ffffff"
     bordercolor="#666666"
     borderopacity="1"
     objecttolerance="10"
     gridtolerance="10"
     guidetolerance="10"
     inkscape:pageopacity="0"
     inkscape:pageshadow="2"
     inkscape:window-width="1600"
     inkscape:window-height="872"
     id="namedview17"
     showgrid="false"
     inkscape:zoom="0.22714148"
     inkscape:cx="520"
     inkscape:cy="519.5"
     inkscape:window-x="0"
     inkscape:window-y="0"
     inkscape:window-maximized="1"
     inkscape:current-layer="Livello_1" />
  <defs
     id="defs4">
    <style
       id="style2">
      .cls-1 {
        fill: #fff;
      }
    </style>
  </defs>
  <title
     id="title6">lactancy</title>
  <circle
     cx="520"
     cy="520"
     r="520"
     id="circle8" />
  <g
     id="g14">
    <path
       class="cls-1"
       d="M602.91,684.63c-11.6-.83-22.3-.79-32.7-2.51-22.65-3.76-40.38-16.31-54-34.27-8.78-11.61-16.06-24.34-24-36.6-3.31-5.14-6.14-10.65-9.84-15.5-6.46-8.49-15.62-11.33-25.93-10.35s-16.93,9.07-17.7,21.26a81.23,81.23,0,0,0,9,42.88c2.46,4.81,5.13,9.54,7.22,14.51,2.71,6.41,1.51,10.86-4.54,14.29-5,2.8-10.38,5.35-15.91,6.4-14.13,2.69-28.44,4.45-42.66,6.67-3.52.55-7,1.44-10.46,2.17l-.81,1.52c2.76,2.55,5.1,6.15,8.36,7.46,13.64,5.51,27.36,11,41.43,15.25,16.86,5.1,34.48,5.2,52,5.66,13,.34,26,.86,38.83,2.3,9.3,1.05,17.4,5.76,24.34,12.14,14,12.89,15.72,32.64,4.13,49.63-8.53,12.52-21.06,19.48-35,24.14-26.63,8.88-53.62,7.8-80.65,2.15-33.16-6.94-64.46-18.75-92.06-38.6-33.43-24.05-49.37-57.41-49-98.51.22-28,8.55-54.12,20.08-79.07,13.84-29.92,28.67-59.41,44-88.61,10.64-20.29,24.41-38.37,44.1-51.11a84.88,84.88,0,0,1,46.49-14c51.46-.21,102.92.16,154.38-.2,31.74-.22,56.35,12.82,75.16,37.81,18.54,24.62,32.33,52.1,46.73,79.13,7.5,14.07,14.4,28.85,18.75,44.12,9.16,32.12,3.89,62.77-15.71,90-18,25-39,47-66.65,61.54-19.15,10.07-39.63,14.72-61.17,9.71-28.45-6.62-38.23-35.81-19.71-58.42,4.32-5.28,9.65-9.72,14.55-14.51C596.78,690.42,599.65,687.73,602.91,684.63Zm-75.55-82.36a67.08,67.08,0,1,0,66.82-67.13A66.77,66.77,0,0,0,527.36,602.27Z"
       id="path10" />
    <path
       class="cls-1"
       d="M618.59,319.44c0,54.36-44.59,98.93-98.9,98.82-54-.11-98.46-44.67-98.54-98.74-.08-54.28,44.56-98.8,99-98.73C574.34,220.85,618.56,265.18,618.59,319.44Z"
       id="path12" />
  </g>
  <path
     style="fill:#9575cd;fill-opacity:0.6627451;stroke-width:1"
     d="M 471.13178,1034.9912 C 352.56278,1024.4427 240.43784,971.07212 153.97887,884.02897 -49.274621,679.40219 -48.473826,358.67009 155.80051,154.42635 257.41329,52.828805 379.24325,2.9020542 523.96229,3.5511506 637.46137,4.0602187 745.82185,40.817001 834.34153,108.8344 866.91739,133.86529 925.5029,195.4915 947.41374,227.77528 1083.9616,428.96721 1062.4963,699.11849 896.03563,874.394 785.06448,991.24162 631.55276,1049.2631 471.13178,1034.9912 Z m 38.93793,-219.98661 c 9.30892,-2.58487 23.87032,-11.06438 32.35869,-18.84341 19.79669,-18.14231 21.53143,-41.87113 4.31938,-59.08322 -9.89938,-9.89934 -16.31358,-11.51987 -58.6869,-14.82693 -46.73299,-3.64728 -107.28218,-19.12953 -99.86811,-25.53589 2.03129,-1.7552 16.44921,-5.44665 32.03984,-8.20321 38.54753,-6.81558 42.59681,-11.51472 31.32749,-36.35545 -10.558,-23.27285 -11.79313,-53.57374 -2.49822,-61.28783 12.93423,-10.73446 26.42947,-1.24236 50.2673,35.3562 12.76848,19.60364 29.47784,39.51 37.13188,44.23635 12.8866,7.95742 18.35539,9.7905 45.96928,15.4085 l 10.04004,2.0426 -11.14068,14.60623 c -14.94064,19.58819 -14.91964,41.70925 0.0528,55.77524 15.09482,14.18085 48.88252,14.45561 77.41487,0.62952 20.63569,-9.99954 58.93195,-45.63975 74.43453,-69.27207 23.43012,-35.71717 18.79811,-82.35431 -14.18851,-142.85546 -31.33074,-57.46418 -47.3942,-78.75408 -69.00721,-91.4596 L 629.62331,443.33602 H 526.16356 c -115.39274,0 -116.13739,0.16025 -146.9635,31.6239 -17.11842,17.4725 -72.77939,125.06707 -81.57404,157.68542 -6.07689,22.53851 -6.09457,65.5915 -0.0361,87.41116 5.73616,20.65818 33.95919,52.19139 60.78139,67.91027 43.67768,25.59682 112.62905,37.8863 151.69818,27.03782 z M 566.0704,407.01504 c 33.53272,-17.00402 49.37408,-40.82977 51.72816,-77.80022 2.15161,-33.78985 -4.23533,-55.20019 -22.76101,-76.30005 -35.24372,-40.1409 -100.00613,-43.89972 -142.27357,-8.25757 -35.30714,29.77285 -42.63708,86.57325 -16.6056,128.6782 26.97165,43.62562 82.109,57.91996 129.91202,33.67964 z"
     id="path826"
     inkscape:connector-curvature="0" />
  <path
     style="fill:#616161;fill-opacity:0.66274512;stroke-width:1"
     d="m 570.18898,662.79207 c -21.60021,-8.67083 -39.63104,-36.82646 -39.60642,-61.84653 0.0466,-47.40062 55.47145,-78.74942 95.77908,-54.17356 22.93476,13.98349 32.67268,33.33379 30.63431,60.87369 -1.46939,19.85267 -4.14639,25.84065 -17.5403,39.23455 -13.5652,13.56521 -19.12798,16.00167 -39.23455,17.18452 -12.88557,0.75804 -26.40002,0.18534 -30.03212,-1.27267 z"
     id="path828"
     inkscape:connector-curvature="0" />
  <path
     style="fill:#616161;fill-opacity:0.6627451;stroke-width:1"
     d="M 437.16801,1028.9586 C 227.26452,994.59274 53.638488,825.01967 12.77615,614.47341 2.7954068,563.04687 2.7728059,477.82765 12.726312,426.55357 39.153855,290.41586 123.61281,165.50858 242.91173,86.129825 402.21388,-19.866172 626.09427,-21.168838 793.85553,82.924113 836.06032,109.11146 914.44314,184.68424 944.51022,228.17777 1059.4727,394.47684 1064.5389,617.442 957.31448,791.6893 928.1299,839.1163 850.62587,919.14734 805.725,948.22138 c -58.50252,37.88128 -110.21228,60.06182 -173.90042,74.59342 -50.3477,11.4877 -143.96825,14.4426 -194.65657,6.1438 z m 81.97098,-217.80659 c 23.71624,-11.48086 36.95768,-25.4975 40.4142,-42.78012 2.18485,-10.92407 0.28616,-16.19207 -9.83797,-27.2955 -11.86146,-13.00885 -15.81041,-14.22448 -72.44339,-22.3002 -32.94396,-4.69777 -66.62339,-11.33672 -74.84322,-14.75331 l -14.94514,-6.2119 26.41526,-5.7038 c 33.2299,-7.17522 47.91146,-15.72958 44.05624,-25.66986 -16.54242,-42.65276 -15.75212,-75.61613 1.81288,-75.61613 8.38561,0 13.41424,5.30559 54.24518,57.23305 16.10137,20.47719 23.15913,25.60197 45.73347,33.20807 l 26.69385,8.99408 -8.12568,15.15122 c -11.00046,20.51149 -10.21553,36.58403 2.50843,51.36407 9.45781,10.98606 13.47561,12.32368 36.32098,12.09211 29.84224,-0.30246 47.69692,-8.33058 76.31609,-34.31434 47.58959,-43.20739 62.94605,-76.98775 52.90698,-116.38227 -2.90722,-11.40822 -6.05438,-24.70447 -6.9937,-29.54726 -2.5235,-13.00987 -31.00068,-67.13318 -49.86113,-94.76504 -9.04868,-13.25698 -26.21476,-30.71649 -38.14688,-38.7989 l -21.69481,-14.69525 -105.6847,1.48762 c -102.51463,1.44303 -106.19273,1.80351 -122.62314,12.01758 -20.46235,12.72049 -47.64224,53.79858 -81.70946,123.49087 -23.98931,49.07558 -24.66172,51.46881 -26.11779,92.95726 -1.25651,35.80236 -0.0958,45.3266 7.28771,59.79947 11.8629,23.25322 48.8903,57.0942 74.51383,68.10148 50.9697,21.89543 113.64802,27.53425 143.80191,12.937 z m 48.84872,-404.1495 c 34.71832,-17.81499 50.62924,-45.6936 50.62924,-88.71094 0,-32.16341 -5.1622,-46.67889 -23.38336,-65.7513 -38.68373,-40.49086 -101.60442,-44.14426 -142.4609,-8.2718 -52.77382,46.33603 -37.83916,139.25933 27.16417,169.01521 18.54849,8.49074 65.83708,5.11737 88.05085,-6.28117 z"
     id="path830"
     inkscape:connector-curvature="0" />
  <path
     style="fill:#616161;fill-opacity:0.6627451;stroke-width:1"
     d="m 552.69523,647.49334 c -7.57269,-7.57269 -14.91498,-19.50078 -16.3162,-26.50687 -1.40122,-7.00609 -4.10773,-13.70251 -6.01447,-14.88094 -6.52332,-4.03164 10.21549,-37.00142 26.12887,-51.46503 13.44606,-12.22106 19.29045,-14.46843 37.90954,-14.57751 19.99504,-0.11713 23.72773,1.55742 40.72351,18.26931 17.68609,17.39065 18.71081,19.77692 18.71081,43.57169 0,23.37181 -1.22327,26.39669 -17.09223,42.26565 -16.08193,16.08194 -18.66417,17.09222 -43.68676,17.09222 -23.9202,0 -27.97911,-1.38456 -40.36307,-13.76852 z"
     id="path832"
     inkscape:connector-curvature="0" />
  <path
     style="fill:#616161;fill-opacity:0.6627451;stroke-width:1"
     d="m 557.89018,650.34465 c -7.1359,-6.00447 -15.59529,-17.39605 -18.79864,-25.31462 -3.20335,-7.91857 -7.80955,-15.74404 -10.236,-17.38993 -6.03463,-4.09336 9.01922,-32.10098 27.17193,-50.55329 12.60715,-12.81522 17.3022,-14.69359 36.7272,-14.69359 46.45143,0 75.51254,47.37609 54.26507,88.46417 -15.69807,30.35672 -63.7311,40.85865 -89.12956,19.48726 z"
     id="path834"
     inkscape:connector-curvature="0" />
  <path
     style="fill:#616161;fill-opacity:0.6627451;stroke-width:1"
     d="m 471.91904,1034.3709 c -2.85439,-1.8923 -11.13323,-3.1336 -18.39743,-2.7584 -7.26419,0.3751 -16.17934,-0.5535 -19.81144,-2.0637 -3.6321,-1.5102 -13.53782,-3.2703 -22.01271,-3.9115 -8.4749,-0.6411 -16.39947,-2.2102 -17.61017,-3.4869 -1.2107,-1.2767 -14.08814,-5.9495 -28.61653,-10.3841 C 291.486,989.18334 217.28691,943.00146 156.35,881.60841 100.12952,824.96714 50.431747,747.34645 32.887391,688.77775 c -3.082671,-10.29094 -7.389331,-18.7108 -9.570355,-18.7108 -2.181025,0 -3.059786,-1.48586 -1.952803,-3.30191 1.106982,-1.81605 -1.85813,-20.14163 -6.589137,-40.72351 C 2.5683003,572.93678 2.6221861,467.11137 14.8827,414.71949 c 4.816481,-20.58188 11.858104,-46.05242 15.648051,-56.60119 3.789946,-10.54878 5.901349,-20.78057 4.692006,-22.73733 -1.209342,-1.95676 -0.571719,-4.22223 1.416941,-5.0344 1.988661,-0.81216 13.647584,-20.62123 25.908717,-44.02015 C 105.60339,204.1611 168.61217,134.85136 246.02039,84.507012 c 22.11254,-14.381428 42.64208,-28.226125 45.6212,-30.765987 2.97912,-2.539867 6.44613,-4.576223 7.70445,-4.525242 11.36813,0.460577 15.66614,-0.663678 20.68419,-5.410486 3.19971,-3.026748 7.7988,-5.564637 10.22019,-5.639753 8.71241,-0.270275 57.26597,-17.421851 58.70971,-20.739245 0.81216,-1.866163 2.86803,-2.533108 4.5686,-1.4821 1.70057,1.051009 21.83808,-0.903782 44.75005,-4.343978 50.6357,-7.6028792 106.39989,-8.0462782 152.50371,-1.212606 18.94106,2.80751 39.39113,5.28394 45.44463,5.503178 6.05349,0.219237 12.28305,2.158221 13.84344,4.308852 1.56035,2.15063 8.98515,4.131774 16.49945,4.402542 7.51435,0.270765 13.66699,2.190123 13.67249,4.265234 0.004,2.075111 2.98176,2.632575 6.61386,1.238809 3.63209,-1.393767 6.60381,-0.915675 6.60381,1.062426 0,4.828437 35.42532,18.532781 40.2303,15.563151 2.08729,-1.290037 3.79512,-0.48781 3.79512,1.782726 0,4.390489 26.35019,16.813635 31.91844,15.048361 1.81604,-0.575738 3.3019,0.652761 3.3019,2.72999 0,2.07723 11.77337,11.043721 26.16308,19.925537 33.64564,20.767299 111.50297,95.082559 136.86888,130.642169 10.82043,15.16882 23.14055,31.22248 27.378,35.6748 4.23745,4.45231 6.68535,8.09512 5.43978,8.09512 -3.3705,0 24.78323,54.80355 28.98255,56.41685 1.98291,0.76179 2.61208,3.97335 1.39812,7.13679 -1.21391,3.16345 0.54244,8.50129 3.90306,11.86187 3.3605,3.36057 5.2905,8.56888 4.2888,11.57401 -1.0017,3.00513 0.2628,5.46387 2.81,5.46387 2.5471,0 3.4909,2.97171 2.0971,6.60381 -1.3938,3.6321 -0.2241,6.60382 2.5993,6.60382 2.8233,0 3.9531,1.90968 2.5106,4.24374 -1.4426,2.33406 0.487,16.24478 4.2878,30.9127 3.8009,14.66793 8.1295,42.47539 9.6193,61.79441 1.4898,19.31897 3.9009,35.12678 5.3581,35.1285 1.4571,0.002 2.7941,9.90739 2.9709,22.01271 0.177,12.10527 -1.4923,22.00963 -3.7094,22.00963 -2.2169,0 -3.3522,10.89898 -2.5228,24.21997 0.8295,13.32099 0.2774,24.21729 -1.2266,24.21398 -1.5041,-0.003 -4.0906,10.39502 -5.7478,23.10736 -3.8157,29.27079 -28.8699,104.7998 -45.88784,138.33445 -31.16555,61.41322 -95.56867,136.82331 -155.27688,181.81483 -42.05691,31.69082 -110.8587,66.13999 -160.16634,80.19549 -19.37118,5.5219 -36.21091,11.0647 -37.42161,12.3173 -1.2107,1.2527 -12.10699,2.8477 -24.21398,3.5446 -12.10699,0.6969 -45.43217,2.7078 -74.05596,4.4687 -28.62374,1.7609 -54.37862,1.6534 -57.23305,-0.239 z m 57.44464,-229.26737 c 21.15857,-13.35683 33.91683,-34.07449 29.51812,-47.93356 -7.16769,-22.58345 -20.99035,-29.5094 -73.23374,-36.69439 -27.35515,-3.76215 -57.6612,-8.99066 -67.34679,-11.61889 -9.68559,-2.62823 -20.0866,-4.83672 -23.11335,-4.90773 -13.85964,-0.32535 0.50229,-12.2757 16.50954,-13.73743 3.6321,-0.33151 13.96555,-2.23596 22.96322,-4.23177 19.79066,-4.3899 23.92694,-14.17064 16.78315,-39.6857 -2.84083,-10.14645 -4.52603,-26.28336 -3.74493,-35.85981 1.24059,-15.2103 2.79847,-17.41179 12.32117,-17.41179 8.38262,0 17.63126,8.43782 40.03302,36.52345 26.64529,33.40583 48.12318,54.30897 48.12318,46.83543 0,-1.64448 2.47643,-0.99502 5.50318,1.44324 3.02675,2.43831 11.86987,5.79419 19.65136,7.45756 l 14.14819,3.02428 -8.64501,16.12968 c -11.47875,21.41683 -10.90637,37.35408 1.87518,52.21349 9.1251,10.60854 13.35775,12.10118 31.91843,11.25598 42.55819,-1.93808 48.38332,-4.7875 90.01456,-44.0318 34.04283,-32.09102 45.34275,-53.17761 44.76461,-83.53481 -0.61442,-32.26227 -22.70854,-97.94574 -32.94625,-97.94574 -2.15043,0 -2.68542,-1.98114 -1.18891,-4.40254 1.49651,-2.4214 0.50594,-4.40254 -2.20127,-4.40254 -2.70721,0 -3.98404,-1.518 -2.8374,-3.37332 3.94059,-6.37598 -30.20452,-51.32779 -53.09109,-69.89397 l -22.90942,-18.58476 -89.35541,-0.40283 c -94.23017,-0.4248 -129.12578,3.44138 -146.47016,16.22781 -20.40805,15.04499 -90.01482,132.14821 -82.8239,139.3391 1.49934,1.49938 0.62952,2.7261 -1.93295,2.7261 -4.12762,0 -11.13872,16.58284 -12.09884,28.61653 -0.19319,2.42139 -1.61185,6.41001 -3.15258,8.86359 -3.58574,5.71027 -3.52419,73.35441 0.072,79.18725 1.49291,2.4214 3.07233,6.75808 3.50983,9.63704 1.21137,7.97146 22.13672,34.0265 38.07086,47.40358 26.56639,22.30315 54.58996,34.18187 95.65884,40.54812 8.47491,1.31372 16.39949,3.34752 17.61019,4.51952 1.2107,1.172 15.08936,1.29575 30.84148,0.27516 21.22232,-1.37523 33.4477,-4.89074 47.20186,-13.57339 z m 23.77809,-392.70815 c 22.06748,-7.51915 53.70252,-31.41519 49.84734,-37.653 -1.3761,-2.22657 -0.49704,-4.04831 1.95345,-4.04831 5.91984,0 13.6253,-28.63219 13.6253,-50.62924 0,-28.49708 -7.92312,-49.04392 -26.27904,-68.14874 -26.93801,-28.03704 -66.06662,-37.59949 -107.16039,-26.18839 -17.55813,4.87562 -52.9558,33.25583 -49.15311,39.4087 1.20573,1.95093 0.0907,4.24761 -2.47746,5.10372 -2.56835,0.85612 -5.11283,4.49233 -5.65441,8.08047 -0.54159,3.58815 -2.1005,8.50505 -3.46427,10.92644 -1.36376,2.4214 -2.85862,14.30827 -3.3219,26.41526 -1.06309,27.78142 18.54015,71.23236 38.57251,85.49666 7.5368,5.36667 13.70326,8.72773 13.70326,7.46904 0,-1.25869 6.43872,0.51001 14.30826,3.93043 18.81097,8.17602 41.19015,8.12032 65.50046,-0.16302 z"
     id="path836"
     inkscape:connector-curvature="0" />
  <path
     style="fill:#616161;fill-opacity:0.6627451;stroke-width:1"
     d="m 570.18898,658.15267 c -11.47089,-4.19325 -25.50483,-19.27238 -31.31449,-33.64665 -3.08397,-7.63037 -7.5925,-15.22003 -10.01895,-16.86592 -5.92915,-4.02181 8.72786,-31.04081 27.23711,-50.20943 12.34213,-12.7818 17.52336,-15.03745 34.54106,-15.03745 23.62382,0 40.13773,8.70661 53.49911,28.20626 18.65328,27.22269 8.38775,68.80297 -20.70001,83.84483 -12.86608,6.65331 -40.01508,8.5442 -53.24383,3.70836 z"
     id="path838"
     inkscape:connector-curvature="0" />
  <path
     style="fill:#616161;fill-opacity:0.6627451;stroke-width:1"
     d="m 471.89853,1034.3583 c -2.84312,-1.8854 -11.14125,-2.9899 -18.44032,-2.4545 -7.29906,0.5354 -15.50461,-0.4073 -18.23462,-2.0943 -2.72996,-1.6872 -12.60715,-3.8449 -21.9493,-4.7948 -9.34215,-0.95 -19.95745,-2.9136 -23.58954,-4.3637 -23.57719,-9.4127 -45.47986,-15.6116 -48.52073,-13.7322 -1.95676,1.2093 -4.22223,0.5783 -5.0344,-1.4022 -0.81216,-1.9806 -15.24747,-9.99972 -32.07847,-17.82031 C 230.16331,953.36399 147.95199,884.1267 99.410665,815.35085 69.406308,772.83911 25.852873,684.74437 21.994811,658.76316 21.251391,653.75681 18.214517,640.87937 15.246201,630.14663 12.277885,619.41394 9.4176463,604.68919 8.8901152,597.425 6.4335762,563.59802 6.0901313,453.4483 8.4338903,451.10452 c 1.4477162,-1.44773 2.6322117,-8.02381 2.6322117,-14.61358 0,-6.58975 5.173857,-29.538 11.49746,-50.99611 6.323604,-21.45811 11.77175,-41.98646 12.106992,-45.61856 0.33524,-3.6321 1.787778,-7.59438 3.227859,-8.80508 1.440076,-1.2107 11.810348,-20.03157 23.045047,-41.82416 41.86208,-81.20226 108.64904,-155.04008 185.35469,-204.922996 21.95977,-14.280791 42.36432,-28.043147 45.34344,-30.583009 2.97912,-2.539867 6.44613,-4.576223 7.70445,-4.525242 11.60181,0.470047 15.80665,-0.84741 21.78483,-6.825589 3.80506,-3.805055 6.91828,-5.892906 6.91828,-4.639669 0,1.954803 36.9755,-9.430767 57.23305,-17.623319 3.6321,-1.468892 15.46097,-3.523933 26.28637,-4.566759 10.82541,-1.042826 20.73113,-3.286564 22.01272,-4.986086 4.78492,-6.3453583 125.33252,-5.7946776 167.25943,0.764068 22.91197,3.584182 43.04946,5.656779 44.75003,4.60577 1.70057,-1.051008 3.77043,0.124557 4.59974,2.612363 0.82926,2.487809 7.92853,4.976583 15.77615,5.530609 7.84762,0.554026 14.27234,2.705139 14.27714,4.78025 0.004,2.075111 2.98048,2.632575 6.61258,1.238809 3.63209,-1.393767 6.60381,-0.932256 6.60381,1.025579 0,3.816245 35.21853,16.666074 40.72352,14.858381 1.81605,-0.596342 3.3019,0.656534 3.3019,2.784168 0,3.999939 23.72733,15.294503 29.03609,13.821619 1.64919,-0.457556 4.21059,0.890639 5.69205,2.995987 1.48141,2.105349 16.07901,13.280107 32.43916,24.832796 41.6669,29.42307 104.22852,90.09772 133.97896,129.93796 13.8261,18.51518 27.21991,35.1195 29.76405,36.89847 2.54414,1.77897 3.11132,3.26482 1.26041,3.3019 -4.08807,0.0819 22.78725,54.527 27.88191,56.48427 1.98291,0.76179 2.61208,3.97335 1.39812,7.13679 -1.21391,3.16345 0.54244,8.50129 3.90306,11.86187 3.3605,3.36057 5.2905,8.56888 4.2888,11.57401 -1.0017,3.00513 0.2628,5.46387 2.81,5.46387 2.5471,0 3.4909,2.97171 2.0971,6.60381 -1.3938,3.6321 -0.2241,6.60382 2.5993,6.60382 2.8233,0 4.1214,1.63741 2.8845,3.63869 -1.2368,2.00128 0.547,15.62334 3.9641,30.27124 3.4171,14.64789 7.4461,40.25121 8.9533,56.89624 1.5071,16.64505 3.9017,33.23546 5.3212,36.86755 4.5271,11.58349 4.716,46.03448 0.2822,51.49817 -2.3527,2.8993 -3.8656,13.79559 -3.3619,24.21398 0.5036,10.4184 -0.214,21.91423 -1.5945,25.54633 -1.3807,3.6321 -4.8455,18.49068 -7.6998,33.01907 -16.8329,85.68184 -57.07922,162.51989 -124.21751,237.15571 -62.0062,68.93069 -150.52755,125.19681 -234.32268,148.94069 -19.37118,5.489 -36.21091,11.0048 -37.42161,12.2574 -1.2107,1.2527 -13.01836,2.9547 -26.23928,3.7823 -98.74744,6.1816 -124.75608,6.9821 -129.28423,3.9794 z m 53.29114,-228.50717 c 14.60103,-7.24368 23.17041,-15.19216 28.80152,-26.71485 7.56406,-15.47788 7.59721,-17.1125 0.58783,-28.97841 -11.20363,-18.9662 -18.76487,-21.92277 -80.11425,-31.32572 -31.09542,-4.76597 -61.69749,-10.62734 -68.00462,-13.02532 -6.30712,-2.39797 -12.66178,-3.16565 -14.12145,-1.70598 -1.45968,1.45966 -2.65395,0.55459 -2.65395,-2.0113 0,-5.58674 11.15956,-10.64777 26.83782,-12.17136 6.28591,-0.61085 17.18221,-3.89634 24.21397,-7.30113 13.70555,-6.63618 14.48995,-11.55782 8.09742,-50.80644 -3.73124,-22.90885 0.46486,-40.98943 9.51275,-40.98943 8.84154,0 27.89402,19.71291 68.99021,71.38167 2.98678,3.75511 17.58147,11.60114 32.43274,17.43561 l 27.00229,10.60806 -8.10697,15.22483 c -18.39673,34.54904 -3.38648,61.47072 34.2487,61.42696 35.79108,-0.0396 50.81339,-6.90306 84.35962,-38.53132 17.31595,-16.32595 31.46633,-32.15996 31.44538,-35.1867 -0.022,-3.02675 1.70264,-5.50318 3.83025,-5.50318 8.53865,0 14.69098,-27.05283 12.74757,-56.05317 -2.01465,-30.06338 -16.51205,-75.29021 -27.73012,-86.50829 -3.34224,-3.34223 -4.85033,-7.3032 -3.35135,-8.80213 1.49893,-1.49898 0.81201,-2.72539 -1.52649,-2.72539 -2.33855,0 -6.75927,-6.93401 -9.82384,-15.4089 -3.06456,-8.4749 -6.99766,-15.4089 -8.74027,-15.4089 -1.74262,0 -6.7263,-6.02312 -11.07486,-13.38465 -4.34862,-7.36158 -17.83109,-21.22959 -29.96111,-30.8178 l -22.05458,-17.43314 -82.15232,0.0885 c -93.24255,0.10037 -133.92025,4.59762 -150.15885,16.60097 -6.18158,4.5694 -18.17324,17.42368 -26.64813,28.56515 -16.18476,21.27718 -64.1791,108.83437 -59.65738,108.83437 1.44502,0 -0.33711,4.52427 -3.96027,10.05391 -3.62316,5.52964 -7.19315,13.9495 -7.9333,18.7108 -0.74016,4.76131 -2.60137,10.66437 -4.13604,13.11795 -3.57777,5.72005 -3.50682,73.36472 0.083,79.18725 1.49291,2.4214 3.07234,6.75808 3.50984,9.63704 1.32022,8.6878 22.41149,34.10795 40.07368,48.29853 23.87259,19.18033 40.63979,26.95051 79.29695,36.74749 42.3497,10.73278 77.28299,9.04102 105.83858,-5.12557 z m 20.70054,-391.64362 c 21.30487,-5.91468 55.11657,-28.46187 55.11657,-36.75425 0,-3.31399 2.08597,-6.72075 4.63544,-7.57059 5.59809,-1.86602 12.73413,-30.76506 12.84516,-52.01911 0.1356,-26.00832 -8.11124,-46.85923 -25.27838,-63.9107 -33.94818,-33.71952 -76.57197,-41.86162 -117.67468,-22.47852 -20.56577,9.69834 -48.34827,33.47606 -39.28965,33.62613 2.23812,0.037 1.5224,1.68341 -1.59051,3.65853 -7.62528,4.83821 -11.84684,24.24099 -11.64539,53.52364 0.18565,26.987 18.32427,66.84935 34.68306,76.22127 34.67592,19.86575 58.15085,24.04543 88.19838,15.7036 z"
     id="path840"
     inkscape:connector-curvature="0" />
  <path
     style="fill:#616161;fill-opacity:0.6627451;stroke-width:1"
     d="m 558.41978,650.64828 c -6.84463,-5.83747 -17.06329,-19.4899 -22.70814,-30.33874 l -10.26337,-19.72515 11.8169,-18.71918 c 19.47168,-30.84513 31.39268,-39.47602 54.47876,-39.44298 46.93019,0.0672 76.50467,47.38306 55.27581,88.43516 -15.56996,30.10897 -63.85515,40.89461 -88.59996,19.79089 z"
     id="path842"
     inkscape:connector-curvature="0" />
  <path
     style="fill:#616161;fill-opacity:0.6627451;stroke-width:1"
     d="m 471.78912,1034.3048 c -2.78293,-1.856 -11.00331,-3.0561 -18.26751,-2.667 -7.26419,0.3892 -18.16049,-0.6551 -24.21398,-2.3205 -6.0535,-1.6654 -15.95922,-3.6703 -22.01271,-4.4553 -6.0535,-0.7851 -13.97808,-2.6469 -17.61017,-4.1374 -21.95579,-9.01 -45.45963,-15.6977 -48.52073,-13.8058 -1.95676,1.2093 -4.22223,0.7006 -5.0344,-1.1306 -0.81216,-1.8311 -15.34466,-9.95724 -32.29445,-18.0581 C 227.90042,951.43854 147.7706,883.86973 99.410665,815.35085 70.246062,774.02894 26.292085,686.45189 22.075033,661.26186 21.466985,657.62977 18.671384,645.7429 15.862586,634.84661 8.4493393,606.08806 7.6613859,595.89948 7.0101574,520.38051 6.4083668,450.59453 9.90963,424.52453 27.967849,364.3319 c 4.761713,-15.87199 7.364367,-28.88851 5.783676,-28.92559 -1.58069,-0.0371 -0.705163,-1.52293 1.945615,-3.3019 2.650777,-1.77897 14.011621,-21.06479 25.24632,-42.85738 26.441229,-51.28956 69.02279,-107.60404 111.01978,-146.82459 37.18628,-34.72789 120.98684,-93.113965 133.64491,-93.113965 4.48538,0 10.66128,-3.019594 13.72422,-6.710206 3.06293,-3.690613 6.4435,-5.835671 7.51238,-4.766796 1.65484,1.654846 36.94555,-9.031716 58.43745,-17.695752 3.6321,-1.464209 14.2474,-3.439426 23.58955,-4.389371 9.34215,-0.949946 19.07034,-3.015539 21.61821,-4.590209 9.8599,-6.0937461 114.61457,-6.6899409 158.50602,-0.902111 24.76642,3.265874 48.00158,5.959873 51.63368,5.986665 3.6321,0.02681 7.74381,1.587189 9.13717,3.46755 1.39336,1.88036 8.81873,3.861504 16.50077,4.402542 7.68209,0.541037 13.97138,2.681523 13.97618,4.756634 0.004,2.075111 2.98048,2.632575 6.61258,1.238809 3.63209,-1.393767 6.60381,-0.932256 6.60381,1.025579 0,3.520112 29.79623,14.921575 36.47819,13.958317 1.90256,-0.274265 6.49864,2.540835 10.21359,6.255775 3.71495,3.71494 12.06407,8.053025 18.55359,9.64019 6.48952,1.58716 12.78969,4.134057 14.00039,5.659767 1.2107,1.525706 15.58681,12.226213 31.94696,23.778902 41.34415,29.19515 103.44271,89.32259 133.94264,129.69103 14.09153,18.651 27.60214,35.36643 30.02354,37.1454 2.4214,1.77897 2.88815,3.26482 1.03724,3.3019 -3.29927,0.0661 21.67451,52.97534 27.04649,57.30047 1.50373,1.2107 3.4108,6.16356 4.238,11.00636 0.8272,4.84279 3.1923,9.42836 5.2559,10.19016 2.0635,0.76178 2.6606,4.22879 1.3269,7.70444 -1.3337,3.47566 -0.2941,6.31938 2.3104,6.31938 2.6045,0 3.5951,2.97171 2.2013,6.60381 -1.3938,3.6321 -0.2241,6.60382 2.5993,6.60382 2.8233,0 4.1001,1.67178 2.8373,3.71506 -1.2628,2.04329 -0.2646,11.07244 2.2183,20.06477 4.564,16.52937 15.9651,88.43388 20.1582,127.13448 1.4011,12.93127 0.2822,23.44591 -2.9032,27.28418 -2.8506,3.43469 -4.7707,14.76899 -4.2671,25.18738 0.5036,10.4184 -0.2139,21.91423 -1.5945,25.54633 -1.3806,3.6321 -4.8455,18.49068 -7.6998,33.01907 -18.6728,95.04684 -66.20522,179.677 -144.67561,257.59095 -61.59192,61.15518 -117.659,95.95077 -198.65601,123.28715 -22.89309,7.7264 -44.59551,15.1072 -48.2276,16.4016 -3.6321,1.2946 -20.47183,3.2734 -37.42161,4.3975 -16.94979,1.1241 -31.80837,3.3298 -33.01907,4.9015 -3.10798,4.0348 -83.46481,3.5714 -89.59478,-0.5167 z m 48.09875,-225.41112 c 40.76904,-17.0344 50.04968,-58.5915 17.01318,-76.18177 -4.99068,-2.65728 -34.70784,-9.16939 -66.03813,-14.47133 -31.3303,-5.30198 -62.41234,-10.6103 -69.07118,-11.7963 -20.98384,-3.73741 -11.38345,-14.20023 15.878,-17.30437 22.49632,-2.56158 35.94604,-11.65802 34.9328,-23.62607 -0.5055,-5.97068 -2.09971,-22.74265 -3.54273,-37.27104 -4.98777,-50.21655 9.79896,-49.08166 54.6632,4.1954 26.72647,31.73819 34.60865,38.21389 57.15451,46.95628 l 26.1526,10.14086 -8.42057,16.50566 c -18.18334,35.64233 -2.81992,60.88188 37.05902,60.88188 29.94609,0 56.83308,-13.70775 86.59668,-44.1494 42.17372,-43.13452 47.32989,-54.97578 42.78867,-98.26576 -2.65386,-25.2985 -18.14927,-70.05378 -27.48754,-79.39206 -3.34224,-3.34223 -4.85033,-7.3032 -3.35135,-8.80213 1.49893,-1.49898 0.54755,-2.72539 -2.11428,-2.72539 -2.66177,0 -6.20023,-4.28698 -7.86324,-9.52662 -5.36851,-16.91466 -33.42842,-52.18954 -54.29599,-68.25697 l -20.31821,-15.64441 -101.25848,2.17047 c -110.15605,2.36121 -121.5053,4.59696 -144.1859,28.40437 -13.65246,14.33071 -69.3374,109.82058 -69.3374,118.90144 0,3.2434 -2.913,10.34289 -6.47332,15.77664 -8.73083,13.32491 -13.31329,38.96228 -13.13018,73.45897 0.1864,35.11728 1.79687,42.14862 14.2801,62.34687 36.046,58.32365 147.18308,94.07586 210.36974,67.67478 z m 51.77156,-406.59143 c 55.57889,-31.40003 62.88358,-109.29327 14.43722,-153.9496 -23.76444,-21.90528 -45.24696,-29.18385 -76.58822,-25.94916 -52.88237,5.45795 -87.04871,44.00259 -86.56794,97.66134 0.70538,78.7285 78.64473,121.8268 148.71894,82.23742 z"
     id="path844"
     inkscape:connector-curvature="0" />
  <path
     style="fill:#616161;fill-opacity:0.6627451;stroke-width:1"
     d="m 468.18265,1034.3436 c -4.9537,-1.8346 -14.24126,-3.1718 -20.63899,-2.9716 -6.39773,0.2003 -19.44744,-1.6442 -28.99937,-4.0986 -9.55193,-2.4545 -18.82547,-3.5614 -20.60787,-2.4598 -1.78239,1.1016 -4.36207,0.1885 -5.73262,-2.0291 -1.97744,-3.1995 -45.98746,-16.2638 -49.67444,-14.7457 -3.28593,1.353 -96.15589,-51.52673 -117.88039,-67.12049 C 162.86069,896.56688 104.44875,831.84132 70.605715,770.22479 61.628491,753.88035 52.367232,740.50763 50.025141,740.50763 c -2.342095,0 -3.165635,-1.76806 -1.830097,-3.92901 1.335538,-2.16094 -2.18518,-14.54309 -7.823815,-27.51589 C 31.910672,689.59755 24.789673,671.86019 23.441203,666.8925 8.4025019,611.49077 7.3668457,602.47225 6.8690616,522.58178 6.4296681,452.0626 10.011286,424.21014 26.955438,366.38016 c 3.916357,-13.36644 7.486828,-26.28376 7.934378,-28.70516 0.447551,-2.4214 3.125176,-8.59963 5.950279,-13.7294 2.825103,-5.12978 3.88549,-10.57792 2.356421,-12.10699 -1.529073,-1.52908 -0.802746,-2.78014 1.614056,-2.78014 2.416802,0 11.895128,-13.68382 21.062951,-30.4085 24.587495,-44.85449 68.160997,-100.80629 106.089717,-136.22753 32.06769,-29.9477 120.39414,-93.113965 130.2028,-93.113965 2.59221,0 9.97165,-2.776314 16.39875,-6.169587 6.4271,-3.39327 20.48384,-8.53901 31.23719,-11.434975 10.75336,-2.895965 24.62137,-7.330882 30.8178,-9.855371 6.19643,-2.524488 19.1614,-5.447389 28.81106,-6.495335 9.64965,-1.047946 19.55537,-3.326364 22.01271,-5.063151 2.45734,-1.7367866 34.18505,-3.7873147 70.50603,-4.556729 36.32097,-0.7694138 67.52399,-2.2929796 69.34004,-3.3857017 1.81605,-1.0927215 3.30191,-0.1446856 3.30191,2.1067464 0,3.2352211 32.55235,8.8218823 68.2394,11.7113053 2.4214,0.19605 6.70199,1.797495 9.51244,3.558765 2.81045,1.761271 10.23974,3.626869 16.50954,4.145774 6.26979,0.518904 11.39963,2.57935 11.39963,4.578769 0,1.999418 2.47643,3.244329 5.50318,2.766467 3.02675,-0.477862 12.86885,2.407008 21.8713,6.41082 9.0025,4.003812 18.59573,7.27966 21.3183,7.27966 2.72262,0 9.98743,3.962288 16.14404,8.805085 6.1566,4.842797 14.77202,8.805085 19.14538,8.805085 4.37335,0 9.18189,1.990759 10.68567,4.423912 1.50378,2.433149 14.30826,12.28374 28.45438,21.890202 56.35118,38.267334 156.38205,145.977684 171.81741,185.007924 3.35156,8.47489 10.69787,22.83818 16.32506,31.91843 5.62724,9.08024 9.14624,16.50953 7.81993,16.50953 -1.32627,0 0.055,4.45758 3.06971,9.90572 3.0146,5.44815 4.9786,12.38215 4.3645,15.4089 -0.6142,3.02675 0.8891,5.50318 3.3407,5.50318 2.4515,0 3.317,2.97171 1.9232,6.60381 -1.3938,3.6321 -0.5611,6.60382 1.8503,6.60382 2.4114,0 4.1515,2.47643 3.8669,5.50317 -0.4822,5.12758 8.8047,60.68621 19.8085,118.50412 2.6117,13.72255 3.3651,32.54341 1.6743,41.82415 -1.6908,9.28073 -3.8579,26.77978 -4.8158,38.88678 -0.9579,12.10699 -3.8112,30.55945 -6.3407,41.0055 -2.5294,10.44604 -3.4531,20.84705 -2.0524,23.11334 1.4006,2.2663 0.4486,4.12056 -2.1157,4.12056 -2.5643,0 -4.6624,3.13422 -4.6624,6.96496 0,11.63438 -22.2703,72.7068 -37.59529,103.0986 -32.05429,63.56849 -95.74032,138.89216 -155.4491,183.85501 -42.42642,31.94864 -92.27434,57.88344 -145.95137,75.93538 -23.00328,7.7362 -44.79587,15.093 -48.42796,16.3485 -3.6321,1.2555 -16.50954,3.0623 -28.61653,4.015 -12.10699,0.9528 -26.94338,2.8515 -32.96976,4.2195 -17.12083,3.8866 -92.03365,4.3692 -102.05564,0.6575 z M 525.18303,805.72231 C 558.05364,790.21576 566.7428,758.30918 543.43592,738.6977 535.98598,732.42896 528.21884,727.3 526.17567,727.3 c -9.24481,0 -133.7826,-22.2394 -135.7924,-24.2492 -4.32238,-4.32242 14.79567,-15.0946 27.036,-15.23368 6.77909,-0.0771 18.30198,-3.2305 25.60646,-7.00779 11.8483,-6.12698 12.95413,-8.38262 10.25229,-20.91208 -1.6657,-7.72435 -4.29644,-14.54723 -5.84609,-15.16196 -1.54966,-0.61468 -1.80399,-12.48204 -0.5652,-26.37184 1.77044,-19.85102 3.96383,-25.58014 10.25171,-26.77781 7.93162,-1.51077 32.07992,21.38306 63.61405,60.30946 10.45327,12.90372 21.57436,20.37449 40.72352,27.35661 14.48872,5.28287 26.34314,9.91144 26.34314,10.2857 0,0.37422 -3.96229,8.45227 -8.80508,17.95115 -13.83486,27.13626 -11.19267,42.48929 9.11995,52.99336 17.6243,9.11383 46.54478,7.98564 68.56634,-2.67481 27.21168,-13.17294 76.81138,-62.78589 84.69783,-84.72046 10.20329,-28.37843 0.16994,-89.8694 -19.70129,-120.74117 -3.49034,-5.42257 -6.69864,-11.366 -7.12961,-13.20763 -0.43101,-1.84163 -2.38926,-5.32959 -4.35182,-7.75099 -1.96257,-2.42139 -11.69457,-16.85491 -21.62661,-32.07445 -9.93209,-15.21955 -27.25795,-34.78053 -38.50195,-43.46877 l -20.4436,-15.79685 -99.05721,2.5249 c -58.2429,1.48458 -105.40609,4.68893 -114.4661,7.77705 -22.18217,7.56088 -43.95165,32.64252 -72.15148,83.12907 -13.58745,24.32581 -24.70445,45.56349 -24.70445,47.19481 0,1.63132 -3.73978,11.02084 -8.31062,20.86559 -34.30298,73.88227 -19.25393,140.42543 40.50704,179.11197 57.20232,37.03023 127.03279,47.10721 173.74254,25.07213 z M 565.9993,405.80582 c 30.21461,-15.41435 52.6589,-52.22259 52.59308,-86.25177 -0.0999,-51.67761 -47.17408,-98.49732 -99.03263,-98.49732 -48.62644,0 -88.34127,34.6284 -96.95499,84.5376 -3.66814,21.25373 7.66889,60.34009 22.67406,78.17271 28.53468,33.91156 79.28648,43.17682 120.72048,22.03878 z"
     id="path846"
     inkscape:connector-curvature="0" />
  <path
     style="fill:#616161;fill-opacity:0.6627451;stroke-width:1"
     d="m 467.7453,1034.1818 c -5.19425,-1.9236 -13.49124,-3.1042 -18.43772,-2.6235 -4.94647,0.4807 -13.94646,-0.3976 -19.99995,-1.9518 -6.0535,-1.5542 -15.95922,-3.5361 -22.01271,-4.4041 -6.0535,-0.8681 -13.97808,-2.723 -17.61017,-4.122 -9.47915,-3.6514 -39.21477,-12.7054 -45.38868,-13.8201 -11.24461,-2.0304 -73.12312,-35.58481 -108.70031,-58.94422 C 188.12704,917.14885 120.91311,849.91556 91.665633,804.34449 79.233223,784.97331 66.41335,765.98734 63.177023,762.15348 c -3.236326,-3.83391 -6.538356,-9.75859 -7.337853,-13.16598 -0.799493,-3.4074 -2.780637,-7.20459 -4.402543,-8.43822 -1.621901,-1.2336 -3.492814,-5.21464 -4.157576,-8.84674 -0.664762,-3.6321 -4.098186,-13.53782 -7.629826,-22.01271 C 27.684094,680.97707 22.932725,667.89143 21.265854,659.06059 20.351747,654.2178 17.463299,642.33093 14.84708,632.64534 7.8439316,606.71872 7.3397079,599.67188 6.9717016,522.58178 6.7867552,483.83941 8.573951,442.23538 10.943244,430.12839 c 7.377634,-37.6994 22.602192,-91.90272 29.368788,-104.56038 3.55972,-6.65885 4.87435,-12.13733 2.921404,-12.17441 -1.952946,-0.037 -1.400334,-1.52294 1.228028,-3.30191 2.628357,-1.77897 13.352955,-18.09307 23.832436,-36.25355 28.405957,-49.2263 62.21823,-92.34279 101.10003,-128.92 35.20315,-33.1166 122.22474,-95.609665 133.13644,-95.609665 3.27219,0 9.85724,-2.604923 14.63347,-5.788714 4.77622,-3.183796 21.56148,-9.469738 37.30057,-13.968762 15.73909,-4.499023 30.52496,-9.206198 32.8575,-10.460387 2.33255,-1.25419 11.24769,-2.939098 19.81145,-3.74424 8.56375,-0.805143 18.54217,-2.64593 22.17427,-4.090638 12.16255,-4.8377909 141.30994,-8.9233784 148.24527,-4.6897497 3.20086,1.9539513 53.52932,8.3466157 65.27803,8.2915447 2.4214,-0.01136 6.584,1.789817 9.25023,4.002593 2.66622,2.212777 10.09551,4.457553 16.50953,4.988393 6.41402,0.53084 11.66185,2.601051 11.66185,4.60047 0,1.999418 2.47643,3.244329 5.50318,2.766467 3.02675,-0.477862 12.86885,2.407008 21.8713,6.41082 9.0025,4.003812 19.16092,7.27966 22.5743,7.27966 3.41338,0 8.51113,2.77734 11.32832,6.171867 2.81723,3.394528 10.23067,7.454011 16.4744,9.021078 31.26179,7.84622 139.55813,104.221173 185.4313,165.018833 20.29281,26.89491 51.72084,82.73593 54.09456,96.11476 0.31567,1.7792 2.7754,7.19719 5.4661,12.03999 2.6906,4.84279 4.3895,11.28151 3.7754,14.30826 -0.6142,3.02675 0.9513,5.50318 3.4788,5.50318 2.5276,0 4.281,1.48586 3.8966,3.30191 -0.3843,1.81604 0.4452,6.27362 1.8434,9.90572 6.3638,16.52968 22.8802,128.17861 22.469,151.88771 -0.5737,33.08369 -4.589,69.2663 -10.3776,93.51427 -2.4515,10.2691 -4.1368,20.17482 -3.7451,22.01271 0.3919,1.83793 -0.4944,6.31338 -1.9691,9.94547 -1.4747,3.6321 -7.8613,22.45297 -14.1925,41.82416 -30.36685,92.91292 -103.04652,190.1329 -189.72197,253.78173 -36.85342,27.06274 -88.30122,53.06411 -138.20039,69.84552 -23.00328,7.7362 -44.79587,15.083 -48.42796,16.3264 -3.6321,1.2433 -14.52839,2.98 -24.21399,3.8593 -9.68559,0.8793 -24.40333,2.7879 -32.70609,4.2413 -23.44891,4.1045 -96.63369,4.5496 -107.1592,0.6517 z m 48.2925,-223.89652 c 17.85711,-5.42133 40.94356,-31.39017 40.94356,-46.05552 0,-6.34235 -5.24603,-16.43223 -12.107,-23.28584 -9.74696,-9.73658 -18.97249,-13.15145 -47.32733,-17.51847 -64.22412,-9.89132 -107.86228,-19.29264 -107.86228,-23.23758 0,-5.01472 15.41433,-11.2371 36.17945,-14.60469 21.69161,-3.51785 30.68086,-12.82742 26.98026,-27.94166 -1.58747,-6.48371 -4.08869,-12.2915 -5.55821,-12.90623 -1.46953,-0.61468 -1.65831,-12.50154 -0.41957,-26.41525 3.83189,-43.03851 16.28127,-37.37525 73.86577,33.6017 10.43808,12.86564 21.60218,20.35797 40.72352,27.32997 25.46466,9.28492 30.84179,13.93052 22.26181,19.23325 -9.00998,5.56847 -14.5718,33.27856 -9.2556,46.11303 19.31659,46.63437 104.83888,18.46756 152.04721,-50.07686 16.50756,-23.96823 17.57495,-27.43972 17.49795,-56.90818 -0.088,-33.61544 -8.38455,-61.41168 -28.1642,-94.35811 -31.42579,-52.34513 -46.74413,-72.27627 -66.94696,-87.1065 l -22.10446,-16.22614 -99.8427,3.09675 c -138.92218,4.3089 -139.78289,4.83064 -196.61836,119.18571 -43.15444,86.82835 -47.93018,136.22052 -17.60235,182.04896 35.65111,53.8725 136.00351,86.46531 203.30945,66.03166 z m 32.44005,-398.21777 c 39.89984,-11.77108 70.1391,-51.43642 70.1391,-92.00268 0,-50.54477 -48.51245,-99.0572 -99.0572,-99.0572 -41.79752,0 -85.59036,34.4956 -94.08654,74.11192 -11.83042,55.16334 19.36562,107.05406 72.07382,119.8858 20.27781,4.9366 25.20196,4.65257 50.93082,-2.93784 z"
     id="path848"
     inkscape:connector-curvature="0" />
  <path
     style="fill:#616161;fill-opacity:0.6627451;stroke-width:1"
     d="m 475.56681,1036.2467 c -0.78647,-0.7878 -9.04013,-2.0449 -18.34138,-2.7934 -9.3013,-0.7485 -23.84545,-2.6953 -32.32035,-4.3262 -8.47489,-1.6309 -18.38061,-3.4827 -22.01271,-4.1152 -40.21665,-7.0022 -118.36476,-43.08206 -171.69915,-79.271 C 186.45366,915.38383 119.20091,847.45943 90.105244,803.24386 76.959856,783.26732 64.577763,766.92288 62.589478,766.92288 c -1.988281,0 -2.390647,-1.98114 -0.894139,-4.40254 1.496508,-2.4214 0.505936,-4.40254 -2.201271,-4.40254 -2.707207,0 -3.796489,-1.82142 -2.420632,-4.04761 1.37586,-2.22619 -0.629872,-7.17905 -4.457183,-11.00636 -3.82731,-3.8273 -5.965454,-6.95875 -4.75143,-6.95875 1.881615,0 -10.52658,-33.9679 -23.319092,-63.83686 C 20.771946,663.45688 10.534918,618.4076 8.5387412,601.82754 4.0923438,564.89616 6.9472495,448.37464 12.961295,421.32331 23.219857,375.18 34.902436,334.49485 41.089134,323.36674 c 3.028905,-5.44815 3.951541,-9.93606 2.050299,-9.97314 -1.901242,-0.037 -1.305125,-1.52294 1.324703,-3.30191 2.629832,-1.77897 12.437103,-17.01192 21.793936,-33.851 25.006921,-45.00387 63.364608,-93.91335 102.476418,-130.66661 37.10334,-34.8659 114.72729,-91.00521 133.2005,-96.333466 6.2191,-1.793785 15.13425,-5.364652 19.81144,-7.935261 C 345.48837,28.256665 403.54745,12.873284 446.9178,8.1398465 473.18429,5.2731236 573.69477,4.2091726 577.81282,6.7542608 c 2.14629,1.326482 19.19429,3.7975062 37.88445,5.4911652 18.69016,1.693658 35.0346,4.782273 36.32089,6.863587 1.28633,2.081314 8.1653,3.784207 15.28659,3.784207 7.12129,0 12.94779,2.193105 12.94779,4.873565 0,2.680461 2.90828,3.757558 6.4628,2.393548 3.55457,-1.36401 7.54446,-0.729933 8.86641,1.409059 1.322,2.138992 9.8053,6.211623 18.85182,9.050291 29.74107,9.332316 55.59121,23.144293 89.09016,47.601675 42.95001,31.357552 108.88161,95.771502 139.32774,136.120542 25.24374,33.45456 58.17293,94.99037 63.00303,117.73564 0.5142,2.4214 2.7787,6.62415 5.0322,9.33945 2.2535,2.71529 7.8483,26.48902 12.4329,52.83051 19.0405,109.39879 19.567,114.92768 13.9416,146.40529 -2.9292,16.39088 -4.8837,31.63887 -4.3434,33.88438 0.5404,2.24552 -0.3579,9.03561 -1.9962,15.0891 -1.6384,6.0535 -3.684,16.94979 -4.5459,24.21398 -0.8619,7.2642 -2.6107,16.17935 -3.8861,19.81144 -1.2754,3.6321 -7.6666,22.45297 -14.2025,41.82416 -26.16834,77.55717 -72.8116,148.25042 -139.79717,211.87886 -38.39976,36.47529 -71.62452,59.89563 -117.79671,83.0357 -18.16049,9.10146 -33.68354,18.2978 -34.49572,20.43639 -0.81219,2.1385 -2.9391,2.9844 -4.72649,1.8797 -1.78738,-1.1046 -20.9343,3.9943 -42.54876,11.3311 -21.61442,7.3367 -48.21409,14.2031 -59.11039,15.2586 -10.89629,1.0554 -26.6046,3.0344 -34.90736,4.3976 -16.73956,2.7485 -97.0813,4.8132 -99.33769,2.5529 z m 43.23926,-226.90105 c 18.42495,-7.69842 38.17529,-31.13505 38.17529,-45.30049 0,-17.60546 -20.90182,-34.96015 -46.34086,-38.47659 -52.33073,-7.23369 -120.95575,-21.56255 -120.95575,-25.25549 0,-5.12941 15.23951,-11.33395 36.17945,-14.7299 21.69161,-3.51785 30.68086,-12.82742 26.98026,-27.94166 -1.58747,-6.48371 -4.08869,-12.2915 -5.55821,-12.90623 -1.46953,-0.61468 -1.65831,-12.50154 -0.41957,-26.41525 1.92066,-21.57197 3.62906,-25.49402 11.60039,-26.63133 6.84222,-0.97622 15.69326,6.05015 33.01907,26.21212 38.60581,44.92543 50.92632,55.4089 74.20503,63.14086 21.35286,7.09228 26.58422,12.15437 18.02661,17.44327 -9.00998,5.56847 -14.5718,33.27856 -9.2556,46.11303 14.94874,36.08944 77.70346,26.89539 124.02147,-18.17005 44.38744,-43.18704 55.3525,-76.30125 41.37971,-124.96576 -14.57853,-50.77431 -61.26582,-124.07413 -93.49807,-146.79349 l -20.50783,-14.45526 -94.97305,3.02071 c -52.23516,1.66139 -102.5056,4.94459 -111.71211,7.29598 -23.04513,5.88585 -45.26619,30.24965 -72.35335,79.33025 -38.80955,70.32093 -51.30297,106.01591 -51.38442,146.81039 -0.0504,25.2304 2.20569,39.8943 7.95394,51.69884 17.1459,35.21052 60.2558,66.32716 111.3525,80.374 28.39553,7.80615 86.02529,8.13955 104.06506,0.60205 z m 20.12548,-394.94316 c 72.51727,-15.55216 102.93712,-99.66773 56.44288,-156.07329 -15.62427,-18.95496 -51.43389,-37.21601 -73.10263,-37.27856 -54.94624,-0.15862 -98.7168,42.90819 -98.79761,97.2091 -0.0675,45.37601 25.82411,81.08264 68.44547,94.39177 23.75268,7.41712 21.05934,7.31681 47.01189,1.75098 z"
     id="path850"
     inkscape:connector-curvature="0" />
  <path
     style="fill:#616161;fill-opacity:0.6627451;stroke-width:1"
     d="m 475.561,1036.2467 c -0.7833,-0.7878 -9.03432,-2.0449 -18.33557,-2.7934 C 387.27347,1027.8241 307.19639,996.82017 231.19322,945.93897 188.83541,917.58206 121.13528,849.46839 90.458346,804.34449 77.289087,784.97331 64.922359,768.45968 62.976725,767.6475 c -1.945637,-0.81219 -2.417682,-3.28862 -1.048993,-5.50318 1.368693,-2.21457 0.273543,-4.02652 -2.433664,-4.02652 -2.707207,0 -3.796489,-1.82142 -2.420632,-4.04761 1.37586,-2.22619 -0.629872,-7.17905 -4.457183,-11.00636 -3.82731,-3.8273 -5.89282,-6.95875 -4.590024,-6.95875 1.302796,0 -4.249026,-15.69127 -12.337384,-34.86954 C 27.600487,682.05732 19.423926,658.77887 17.518709,649.50567 15.613492,640.2325 13.570853,630.66419 12.979512,628.2428 8.1554537,608.48947 6.9366112,588.82565 6.5906039,525.16929 c -0.2183216,-40.1655 1.7053812,-83.92448 4.2748951,-97.24217 7.137,-36.99079 22.198193,-88.72733 30.118502,-103.45975 3.905315,-7.26419 6.503876,-13.20762 5.77459,-13.20762 -2.391712,0 14.475172,-28.76141 40.916274,-69.77043 C 121.69786,188.72111 192.4738,118.411 251.24511,78.995659 c 24.34624,-16.327951 46.82372,-29.687184 49.94996,-29.687184 3.12625,0 10.94262,-2.790715 17.36972,-6.201593 C 347.97523,27.498697 392.58059,15.092727 444.71653,8.0206415 494.57598,1.257356 642.0092,9.4859503 652.0304,19.591314 c 1.8009,1.816048 8.55744,3.301906 15.01452,3.301906 6.45707,0 13.22598,1.485858 15.04203,3.301907 1.81605,1.816049 4.62267,3.422277 6.23691,3.569397 1.61428,0.14712 10.60629,3.614122 19.98221,7.704449 9.37596,4.090327 18.72542,7.436959 20.77652,7.436959 6.83147,0 41.07726,19.312805 70.00241,39.477598 37.76408,26.32675 112.56781,98.73884 142.70282,138.14026 22.84391,29.86836 55.59878,89.89092 66.44278,121.75502 0.4121,1.2107 2.7646,7.15413 5.2279,13.20763 2.4633,6.0535 9.9543,43.69523 16.6467,83.64831 9.3602,55.88085 11.4051,78.73687 8.8623,99.0572 -1.8181,14.52839 -3.7676,31.36811 -4.3321,37.42161 -0.5646,6.0535 -2.6174,18.93093 -4.5618,28.61652 -1.9444,9.6856 -3.9099,20.58189 -4.3677,24.21399 -0.4579,3.6321 -1.8906,9.57553 -3.1839,13.20762 -1.2932,3.6321 -7.7134,22.45297 -14.2671,41.82416 -26.1696,77.35139 -70.31024,145.07623 -135.08872,207.26619 -41.88116,40.20758 -74.68961,63.69224 -122.47296,87.66756 -18.16049,9.11203 -34.00964,17.8008 -35.22034,19.30832 -1.2107,1.50748 -4.18241,2.82328 -6.60381,2.92388 -2.4214,0.1008 -22.23284,5.875 -44.02543,12.832 -21.79258,6.957 -45.56631,13.2574 -52.8305,14.0008 -7.2642,0.7433 -21.58294,2.5129 -31.81938,3.9324 -20.69512,2.8697 -102.39847,5.0871 -104.63276,2.8397 z m 44.34479,-229.24453 c 21.17363,-9.6166 37.07557,-28.15091 37.07557,-43.21293 0,-5.91323 -5.44815,-16.19418 -12.107,-22.84655 -10.44516,-10.435 -18.91248,-13.13922 -61.68705,-19.70081 -27.26904,-4.18303 -51.53804,-6.39544 -53.93114,-4.91645 -2.3931,1.47903 -4.35109,0.76521 -4.35109,-1.58628 0,-2.35144 -8.02591,-5.63134 -17.83537,-7.28863 -10.51377,-1.77629 -17.14342,-5.09792 -16.14978,-8.09143 1.67428,-5.04408 5.77854,-6.6161 41.6896,-15.96793 17.38965,-4.52855 18.71081,-5.92974 18.71081,-19.8449 0,-8.23483 -1.52297,-15.91361 -3.38437,-17.06404 -1.86139,-1.15038 -2.35668,-13.64946 -1.10063,-27.77568 1.95213,-21.9546 3.64112,-25.87775 11.63178,-27.01783 6.84221,-0.97622 15.69326,6.05015 33.01907,26.21212 38.6058,44.92543 50.92632,55.4089 74.20502,63.14086 12.15939,4.03868 22.10794,7.80232 22.10794,8.3636 0,0.56128 -3.96229,9.22152 -8.80508,19.24492 -11.69315,24.20206 -11.15794,30.1819 4.0639,45.40369 25.42503,25.42508 69.16649,14.10271 115.61212,-29.92593 28.43057,-26.951 47.50467,-60.1673 47.57758,-82.85321 0.14968,-46.56899 -38.593,-124.38983 -85.03824,-170.81305 l -30.12166,-30.10736 -97.58817,2.98184 c -53.6735,1.64004 -104.80298,4.80595 -113.62111,7.0354 -23.4766,5.93546 -47.1007,32.36467 -75.00307,83.90893 -39.03233,72.10471 -49.0615,101.07907 -49.2869,142.39024 -0.22858,41.89812 8.02719,61.17293 38.05815,88.85449 23.94153,22.06854 32.28547,26.67082 71.44697,39.40813 39.56865,12.86973 89.067,13.76164 114.81215,2.06879 z m 19.02576,-392.59968 c 47.33098,-10.15068 77.08627,-46.56497 77.08627,-94.33766 0,-85.80272 -100.07591,-129.13765 -164.0253,-71.02633 -17.98566,16.34372 -27.08744,39.68361 -27.08744,69.46095 0,47.55708 23.49144,80.56133 67.01458,94.15206 23.75268,7.41712 21.05934,7.31681 47.01189,1.75098 z"
     id="path852"
     inkscape:connector-curvature="0" />
  <path
     style="fill:#616161;fill-opacity:0.6627451;stroke-width:1"
     d="m 476.02226,1036.7084 c -0.5291,-0.5339 -9.77052,-1.9008 -20.53641,-3.0375 C 383.89257,1026.112 308.27796,996.99222 233.39449,948.14165 193.3739,922.03409 120.82204,849.05196 90.445081,804.34449 77.283117,784.97331 64.922359,768.45968 62.976725,767.6475 c -1.945637,-0.81219 -2.417682,-3.28862 -1.048993,-5.50318 1.368693,-2.21457 0.273543,-4.02652 -2.433664,-4.02652 -2.707207,0 -3.836512,-1.75666 -2.509568,-3.90369 1.326939,-2.14704 -0.537282,-6.3519 -4.142718,-9.34418 -3.60544,-2.99223 -6.555341,-8.30729 -6.555341,-11.81123 0,-3.50394 -5.781371,-20.59637 -12.847492,-37.9832 C 11.39024,640.82275 6.9419536,613.37387 6.5552691,529.18559 6.3606393,486.81112 8.3256538,441.24481 10.921968,427.92712 18.747902,387.7843 32.958551,338.49116 40.748232,324.46737 c 4.034987,-7.26419 6.739645,-13.20762 6.010359,-13.20762 -2.391712,0 14.475172,-28.76141 40.916274,-69.77043 C 121.92899,188.36263 192.62128,118.22183 251.00466,79.433694 c 24.21398,-16.087031 48.97828,-30.679306 55.03178,-32.427278 6.0535,-1.747968 12.9875,-4.658612 15.4089,-6.468096 5.14752,-3.846683 34.2008,-13.533384 37.42161,-12.476801 1.2107,0.397168 6.91213,-1.79905 12.66984,-4.880485 9.30301,-4.978822 32.13812,-9.719052 73.17974,-15.191028 50.34399,-6.7122412 197.30852,1.5119092 207.31387,11.601308 1.8009,1.816048 8.09297,3.301906 13.9823,3.301906 5.88932,0 16.95071,2.885648 24.58084,6.41255 7.63014,3.526903 25.32105,10.624385 39.31312,15.772183 38.57825,14.193233 87.87118,49.660766 142.94831,102.854927 69.99751,67.60443 93.19174,100.80967 135.14153,193.47088 4.2171,9.31502 13.599,50.91905 20.8486,92.45339 10.5885,60.6634 12.5608,81.5786 10.0275,106.3348 -4.5689,44.64935 -4.8405,46.69631 -8.763,66.03813 -1.9642,9.6856 -3.9459,20.58189 -4.4037,24.21399 -0.4579,3.6321 -1.8906,9.57553 -3.1839,13.20762 -1.2932,3.6321 -7.746,22.45297 -14.3396,41.82416 -26.84293,78.86199 -68.744,143.24323 -134.89273,207.26368 -41.1326,39.80915 -73.87717,63.22513 -122.59645,87.67007 -18.16049,9.11203 -34.00964,17.8008 -35.22034,19.30832 -1.2107,1.50748 -4.18241,3.00448 -6.60381,3.32658 -2.4214,0.3218 -24.21399,6.6272 -48.42797,14.0114 -24.21398,7.3842 -55.91229,14.5525 -70.44068,15.9294 -27.72994,2.6281 -112.32488,5.3914 -113.97816,3.7231 z m 43.88353,-229.70623 c 40.90543,-18.57833 49.06884,-55.53547 16.033,-72.58401 -13.95227,-7.20022 -100.67932,-21.80297 -106.84784,-17.99059 -2.30223,1.42286 -4.18587,0.74214 -4.18587,-1.51267 0,-2.25485 -7.92457,-5.36692 -17.61016,-6.91569 -28.34462,-4.53251 -20.53178,-15.85853 15.40889,-22.33784 9.6856,-1.74609 20.0866,-5.22115 23.11335,-7.72237 6.00723,-4.96417 7.56498,-28.09086 2.11881,-31.45678 -1.86139,-1.15038 -2.35668,-13.64946 -1.10063,-27.77568 3.15138,-35.4421 12.97737,-36.61683 41.60851,-4.97444 48.70678,53.82932 54.25425,58.65622 76.6373,66.68272 12.4949,4.48064 22.718,8.68634 22.718,9.34607 0,0.65972 -4.16599,10.61739 -9.25771,22.1281 -10.60704,23.97893 -7.73962,36.25551 11.39669,48.79408 15.09121,9.88815 49.58949,5.89985 74.31764,-8.59183 25.39418,-14.882 63.1178,-55.93773 73.99807,-80.53434 7.1411,-16.14373 8.49087,-25.55183 6.31809,-44.03872 -5.68686,-48.38632 -40.67096,-114.29726 -83.32239,-156.98163 l -30.0094,-30.03251 -93.26179,2.77743 c -51.29402,1.52759 -102.3864,4.77024 -113.53865,7.20586 -25.42839,5.55359 -48.76346,28.70999 -73.55498,72.99186 -68.96564,123.18437 -73.85131,189.86374 -17.70346,241.61606 46.62242,42.9726 138.81914,63.66446 186.72453,41.90692 z M 565.78644,404.2254 c 36.84571,-18.01467 60.04117,-69.50159 48.66174,-108.01454 -13.00132,-44.00225 -50.92368,-73.09174 -94.88843,-72.78711 -59.8321,0.41458 -98.30417,42.51331 -93.77128,102.6108 3.5059,46.48155 26.83661,75.89976 68.76726,86.71014 25.31664,6.52702 45.35908,4.12992 71.23071,-8.51929 z"
     id="path854"
     inkscape:connector-curvature="0" />
  <path
     style="fill:#616161;fill-opacity:0.6627451;stroke-width:1"
     d="m 476.26501,1036.9991 c -0.40195,-0.3742 -10.63641,-1.773 -22.7434,-3.1088 -70.7245,-7.8028 -144.66559,-36.5899 -220.12712,-85.70106 C 194.20487,922.68426 116.45731,844.70304 89.03194,803.39288 77.431685,785.91968 66.007792,770.42893 63.645507,768.96896 c -2.362286,-1.45997 -3.155258,-4.49874 -1.762157,-6.75284 1.3931,-2.25405 0.918462,-4.09832 -1.054748,-4.09832 -3.800266,0 -5.54988,-3.84941 -27.013785,-59.43433 C 11.316262,640.41913 7.0336604,613.74826 6.5981697,529.18559 6.3799449,486.81112 8.3256538,441.24481 10.921968,427.92712 c 6.554901,-33.62311 21.579396,-88.71031 26.700401,-97.89683 2.343839,-4.20459 4.261529,-10.24036 4.261529,-13.41283 0,-3.17246 2.999761,-9.63806 6.666132,-14.368 3.666371,-4.72993 18.029666,-27.27159 31.918432,-50.09256 17.653852,-29.00748 39.161978,-55.54355 71.478998,-88.18863 42.7471,-43.18104 83.6483,-80.559657 83.6483,-76.444165 0,0.954436 11.84745,-6.310111 26.32766,-16.143436 14.48022,-9.833325 29.83408,-19.110613 34.11971,-20.616199 4.28562,-1.505581 17.76524,-7.179424 29.95471,-12.608536 29.26644,-13.035091 77.62329,-25.627161 118.71869,-30.9142123 4.84279,-0.6230412 36.5411,-1.2661298 70.44067,-1.4290864 63.17147,-0.3036653 121.73523,5.2436927 135.31844,12.8178237 4.2046,2.344519 11.62509,4.262761 16.48994,4.262761 16.24842,0 94.07005,34.846357 125.2264,56.072889 39.03422,26.593641 123.76256,108.055501 151.86601,146.011261 24.38837,32.93831 53.81276,87.77347 66.36591,123.67924 4.6608,13.3313 13.7019,54.94646 20.0913,92.47814 12.2166,71.7602 12.2823,98.75298 0.3963,162.89406 -1.5705,8.4749 -3.7118,20.36176 -4.7586,26.41526 -8.5163,49.25216 -51.67145,141.451 -89.8654,191.99289 -31.48232,41.66047 -121.58695,129.16755 -136.48053,132.54602 -2.30834,0.52364 -14.65923,7.12081 -27.44637,14.66038 -12.78714,7.53957 -30.81802,16.73671 -40.0686,20.43805 -9.25058,3.70135 -16.81925,8.16558 -16.81925,9.92049 0,1.7549 -2.47643,3.2061 -5.50318,3.2249 -3.02675,0.018 -25.31462,6.1577 -49.5286,13.6421 -24.21398,7.4844 -55.79434,14.7949 -70.17855,16.2456 -24.14235,2.4347 -112.32682,5.4397 -113.99754,3.8846 z m 40.07414,-228.4622 c 43.1012,-18.00882 53.36278,-56.78773 19.59964,-74.06767 -13.78692,-7.05613 -100.96461,-21.67772 -107.00178,-17.94652 -2.21756,1.37051 -4.03193,0.647 -4.03193,-1.60781 0,-2.25485 -7.92457,-5.36692 -17.61016,-6.91569 -28.82075,-4.60863 -22.85886,-13.74333 14.369,-22.01601 26.00403,-5.77856 33.5694,-14.71308 27.36199,-32.31378 -2.37015,-6.72044 -3.31881,-23.11529 -2.10811,-36.43298 3.4169,-37.58609 12.73241,-35.53693 56.52732,12.43463 27.31174,29.91638 41.38443,41.63938 59.00886,49.15632 12.72916,5.42909 23.66323,10.32568 24.29794,10.88133 0.63471,0.5556 -2.9324,10.24823 -7.92691,21.53913 -7.88244,17.81968 -8.32525,22.10485 -3.35527,32.46998 8.16465,17.0278 23.92404,24.00693 48.41371,21.44029 27.03196,-2.83308 44.04946,-12.02299 73.0465,-39.44722 60.66756,-57.37679 63.04453,-101.672 10.42795,-194.32404 -11.59538,-20.41815 -31.77329,-46.86964 -48.01136,-62.9387 l -28.00985,-27.71832 -84.505,2.55189 c -134.42799,4.0595 -139.52443,5.22274 -167.84623,38.3104 -17.44997,20.38637 -63.19727,107.14586 -74.98152,142.20199 -10.31555,30.68704 -9.89196,79.79273 0.89798,104.10203 15.14854,34.12899 60.52819,66.70807 112.36277,80.66778 31.29046,8.42691 78.87247,8.41392 99.07446,-0.0264 z m 53.8298,-408.12567 c 62.72703,-37.70364 61.69261,-124.52964 -1.95239,-163.87832 -42.46345,-26.25314 -98.17547,-14.28362 -127.4245,27.37669 -25.16617,35.84494 -19.6993,93.48975 11.85921,125.04827 18.92653,18.9265 35.86804,25.38702 67.10324,25.5893 22.38002,0.14493 30.39401,-2.10214 50.41444,-14.13594 z"
     id="path856"
     inkscape:connector-curvature="0" />
</svg>
