<?xml version="1.0" encoding="UTF-8" standalone="no"?>
<svg
   xmlns:dc="http://purl.org/dc/elements/1.1/"
   xmlns:cc="http://creativecommons.org/ns#"
   xmlns:rdf="http://www.w3.org/1999/02/22-rdf-syntax-ns#"
   xmlns:svg="http://www.w3.org/2000/svg"
   xmlns="http://www.w3.org/2000/svg"
   xmlns:sodipodi="http://sodipodi.sourceforge.net/DTD/sodipodi-0.dtd"
   xmlns:inkscape="http://www.inkscape.org/namespaces/inkscape"
   id="Livello_1"
   data-name="Livello 1"
   viewBox="0 0 1040 1039"
   version="1.1"
   sodipodi:docname="pregnancyC.svg"
   inkscape:version="0.92.3 (2405546, 2018-03-11)">
  <metadata
     id="metadata21">
    <rdf:RDF>
      <cc:Work
         rdf:about="">
        <dc:format>image/svg+xml</dc:format>
        <dc:type
           rdf:resource="http://purl.org/dc/dcmitype/StillImage" />
        <dc:title>pregnancy</dc:title>
      </cc:Work>
    </rdf:RDF>
  </metadata>
  <sodipodi:namedview
     pagecolor="#ffffff"
     bordercolor="#666666"
     borderopacity="1"
     objecttolerance="10"
     gridtolerance="10"
     guidetolerance="10"
     inkscape:pageopacity="0"
     inkscape:pageshadow="2"
     inkscape:window-width="1600"
     inkscape:window-height="872"
     id="namedview19"
     showgrid="false"
     inkscape:zoom="0.32122656"
     inkscape:cx="605.7724"
     inkscape:cy="450.50366"
     inkscape:window-x="0"
     inkscape:window-y="0"
     inkscape:window-maximized="1"
     inkscape:current-layer="Livello_1" />
  <defs
     id="defs4">
    <style
       id="style2">
      .cls-1 {
        fill: #fff;
      }
    </style>
  </defs>
  <title
     id="title6">pregnancy</title>
  <g
     id="g16">
    <circle
       cx="520"
       cy="519.5"
       r="519.73"
       id="circle8" />
    <g
       id="g14">
      <path
         class="cls-1"
         d="M612.14,739.45c-70.34-16.42-81.12,21-79.32,77.27.44,13.85-26.56,28.58-40.94,42.91C478.74,844.49,456.72,830.78,454,814c-11.12-69-9-69.31-86.09-78.88,7.66-57.71,14.8-115.64,23.16-173.4,7.85-54.25,17.08-108.3,25.5-162.47,4.75-30.55,10.91-60.68,49.86-62.9,36.82-2.09,71.07-6.34,90.94,41.77,14.72,35.65,44.6,67.38,73.86,94.13,47.1,43.06,57.61,110.61,9.89,152.2-30.41,26.5-39,51.47-29.24,87.4C613.66,718.39,612.14,725.87,612.14,739.45ZM464.46,429.67c2.35,83.62,48.45,129.75,114.28,125.08,9.63-.68,18.69-9.22,28-14.12-8.41-7.78-16.7-22.11-25.24-22.26-54.68-1-73.44-34.24-81.66-81.32-2.13-12.23-12.32-23.06-18.8-34.54Z"
         id="path10" />
      <path
         class="cls-1"
         d="M488.39,178.65c42.86.55,76.18,34,75.82,76.15-.36,41.6-35.09,75.08-77.55,74.74-41-.34-77.66-36.8-76.86-76.49C410.63,211.91,446.33,178.11,488.39,178.65Z"
         id="path12" />
    </g>
  </g>
  <path
     style="fill:#e57373;fill-opacity:1;stroke-width:1"
     d="M 419.55603,1026.7681 C 260.47219,993.22369 132.98286,896.76086 60.51076,755.10201 -43.207399,552.36753 -5.6981055,315.91863 155.80051,154.42001 c 225.11262,-225.112623 588.23668,-197.258406 781.98443,59.9838 43.79433,58.14645 78.81956,142.41667 93.07296,223.93228 10.043,57.43548 6.132,148.42507 -8.8805,206.60978 -43.20884,167.46619 -166.42332,303.14392 -328.51723,361.74703 -80.06723,28.9473 -192.684,37.2013 -273.90414,20.0752 z m 96.70181,-184.88022 c 17.26932,-16.03979 18.7108,-19.09903 18.7108,-39.7094 0,-24.79124 7.74425,-47.26459 19.70583,-57.18506 5.24316,-4.34852 16.65909,-6.31835 34.2711,-5.91345 l 26.40896,0.60711 -2.89859,-31.98742 c -1.60811,-17.7459 -1.01549,-36.9405 1.33107,-43.11238 2.32635,-6.11874 15.11551,-23.32493 28.42039,-38.23595 18.41355,-20.63643 25.30035,-32.28525 28.83727,-48.77731 9.05149,-42.2058 -2.61749,-68.27423 -56.04375,-125.20108 -24.39673,-25.99528 -43.69624,-51.51439 -53.39064,-70.5967 -16.34942,-32.18198 -32.78402,-46.04041 -55.25816,-46.59627 -12.88527,-0.3187 -12.78102,-0.48283 4.27143,-6.72547 55.81024,-20.4312 73.08617,-84.86484 33.97072,-126.6999 -22.67155,-24.24789 -56.29284,-31.14474 -87.75103,-18.00068 -21.83159,9.12182 -31.64966,18.50849 -41.26833,39.45498 -10.57016,23.01855 -10.33607,39.19942 0.90295,62.41614 10.8349,22.38191 28.89183,36.37138 56.58571,43.83935 l 20.08092,5.41505 -22.13374,0.29713 c -27.41313,0.36801 -38.97051,8.13106 -47.95055,32.2082 -6.76411,18.13586 -33.84149,186.63504 -49.23645,306.39238 -8.56139,66.59906 -9.52866,64.06122 26.02131,68.27159 30.45454,3.60691 40.73576,14.76687 48.6923,52.85415 5.12795,24.54716 9.43033,33.38197 23.04762,47.32733 9.20844,9.43033 18.81704,17.12135 21.35237,17.09115 2.53534,-0.0308 13.02955,-7.87527 23.32049,-17.43349 z"
     id="path831"
     inkscape:connector-curvature="0" />
  <path
     style="fill:#e57373;fill-opacity:1;stroke-width:1"
     d="m 528.36483,543.90482 c -34.40001,-18.07808 -59.43432,-59.7029 -59.43432,-98.82211 0,-17.94985 6.13993,-34.76576 12.69389,-34.76576 4.55256,0 16.31126,27.18282 22.78431,52.6709 7.48255,29.46308 31.65876,51.66457 60.41363,55.47904 13.91463,1.84584 25.60327,6.32377 30.43071,11.65803 7.52862,8.31904 7.50299,8.90607 -0.64935,14.8672 -11.28969,8.25523 -49.65988,7.62539 -66.23887,-1.0873 z"
     id="path833"
     inkscape:connector-curvature="0" />
</svg>
