<svg id="Livello_1" data-name="Livello 1" xmlns="http://www.w3.org/2000/svg" viewBox="0 0 1040 1039">
  <defs>
    <style>
      .cls-1 {
        fill: #fff;
      }
    </style>
  </defs>
  <title>pregnancy</title>
  <g>
    <circle cx="520" cy="519.5" r="519.73"/>
    <g>
      <path class="cls-1" d="M612.14,739.45c-70.34-16.42-81.12,21-79.32,77.27.44,13.85-26.56,28.58-40.94,42.91C478.74,844.49,456.72,830.78,454,814c-11.12-69-9-69.31-86.09-78.88,7.66-57.71,14.8-115.64,23.16-173.4,7.85-54.25,17.08-108.3,25.5-162.47,4.75-30.55,10.91-60.68,49.86-62.9,36.82-2.09,71.07-6.34,90.94,41.77,14.72,35.65,44.6,67.38,73.86,94.13,47.1,43.06,57.61,110.61,9.89,152.2-30.41,26.5-39,51.47-29.24,87.4C613.66,718.39,612.14,725.87,612.14,739.45ZM464.46,429.67c2.35,83.62,48.45,129.75,114.28,125.08,9.63-.68,18.69-9.22,28-14.12-8.41-7.78-16.7-22.11-25.24-22.26-54.68-1-73.44-34.24-81.66-81.32-2.13-12.23-12.32-23.06-18.8-34.54Z"/>
      <path class="cls-1" d="M488.39,178.65c42.86.55,76.18,34,75.82,76.15-.36,41.6-35.09,75.08-77.55,74.74-41-.34-77.66-36.8-76.86-76.49C410.63,211.91,446.33,178.11,488.39,178.65Z"/>
    </g>
  </g>
</svg>
